<mxfile host="app.diagrams.net" modified="2021-06-14T04:32:27.517Z" agent="5.0 (Windows NT 10.0; Win64; x64) AppleWebKit/537.36 (KHTML, like Gecko) Chrome/88.0.4324.182 Safari/537.36" etag="xEWfpBlUBAPtH5WLUUpp" version="14.7.7" type="github">
  <diagram id="OGg4W-kkd8_lV_XXp0Lj" name="Page-1">
    <mxGraphModel dx="2062" dy="762" grid="1" gridSize="10" guides="1" tooltips="1" connect="1" arrows="1" fold="1" page="1" pageScale="1" pageWidth="3300" pageHeight="4681" math="0" shadow="0">
      <root>
        <mxCell id="0" />
        <mxCell id="1" parent="0" />
        <mxCell id="KKplSYqsVXm_G8sszua0-5" value="" style="edgeStyle=orthogonalEdgeStyle;rounded=0;orthogonalLoop=1;jettySize=auto;html=1;" parent="1" source="KKplSYqsVXm_G8sszua0-1" target="KKplSYqsVXm_G8sszua0-4" edge="1">
          <mxGeometry relative="1" as="geometry" />
        </mxCell>
        <mxCell id="KKplSYqsVXm_G8sszua0-1" value="start = 1" style="rounded=1;whiteSpace=wrap;html=1;" parent="1" vertex="1">
          <mxGeometry x="430" y="120" width="230" height="40" as="geometry" />
        </mxCell>
        <mxCell id="KKplSYqsVXm_G8sszua0-3" value="" style="edgeStyle=orthogonalEdgeStyle;rounded=0;orthogonalLoop=1;jettySize=auto;html=1;" parent="1" source="KKplSYqsVXm_G8sszua0-2" target="KKplSYqsVXm_G8sszua0-1" edge="1">
          <mxGeometry relative="1" as="geometry" />
        </mxCell>
        <mxCell id="KKplSYqsVXm_G8sszua0-2" value="FUNCTION sort_data(data, target, order, mode)" style="shape=process;whiteSpace=wrap;html=1;backgroundOutline=1;" parent="1" vertex="1">
          <mxGeometry x="425" y="30" width="240" height="50" as="geometry" />
        </mxCell>
        <mxCell id="KKplSYqsVXm_G8sszua0-7" value="" style="edgeStyle=orthogonalEdgeStyle;rounded=0;orthogonalLoop=1;jettySize=auto;html=1;" parent="1" source="KKplSYqsVXm_G8sszua0-4" target="KKplSYqsVXm_G8sszua0-6" edge="1">
          <mxGeometry relative="1" as="geometry" />
        </mxCell>
        <mxCell id="KKplSYqsVXm_G8sszua0-4" value="count = 1" style="rounded=1;whiteSpace=wrap;html=1;" parent="1" vertex="1">
          <mxGeometry x="430" y="200" width="230" height="40" as="geometry" />
        </mxCell>
        <mxCell id="KKplSYqsVXm_G8sszua0-9" value="" style="edgeStyle=orthogonalEdgeStyle;rounded=0;orthogonalLoop=1;jettySize=auto;html=1;" parent="1" source="KKplSYqsVXm_G8sszua0-6" target="KKplSYqsVXm_G8sszua0-8" edge="1">
          <mxGeometry relative="1" as="geometry" />
        </mxCell>
        <mxCell id="KKplSYqsVXm_G8sszua0-18" style="edgeStyle=orthogonalEdgeStyle;rounded=0;orthogonalLoop=1;jettySize=auto;html=1;" parent="1" source="KKplSYqsVXm_G8sszua0-6" edge="1">
          <mxGeometry relative="1" as="geometry">
            <mxPoint x="545" y="570" as="targetPoint" />
            <Array as="points">
              <mxPoint x="690" y="330" />
              <mxPoint x="690" y="570" />
            </Array>
          </mxGeometry>
        </mxCell>
        <mxCell id="KKplSYqsVXm_G8sszua0-6" value="mode == 1" style="rhombus;whiteSpace=wrap;html=1;" parent="1" vertex="1">
          <mxGeometry x="490" y="280" width="110" height="100" as="geometry" />
        </mxCell>
        <mxCell id="KKplSYqsVXm_G8sszua0-11" style="edgeStyle=orthogonalEdgeStyle;rounded=0;orthogonalLoop=1;jettySize=auto;html=1;entryX=0.5;entryY=0;entryDx=0;entryDy=0;" parent="1" source="KKplSYqsVXm_G8sszua0-8" target="KKplSYqsVXm_G8sszua0-10" edge="1">
          <mxGeometry relative="1" as="geometry" />
        </mxCell>
        <mxCell id="KKplSYqsVXm_G8sszua0-8" value="start = 2" style="rounded=1;whiteSpace=wrap;html=1;" parent="1" vertex="1">
          <mxGeometry x="430" y="430" width="230" height="40" as="geometry" />
        </mxCell>
        <mxCell id="KKplSYqsVXm_G8sszua0-16" value="" style="edgeStyle=orthogonalEdgeStyle;rounded=0;orthogonalLoop=1;jettySize=auto;html=1;" parent="1" source="KKplSYqsVXm_G8sszua0-10" target="KKplSYqsVXm_G8sszua0-13" edge="1">
          <mxGeometry relative="1" as="geometry" />
        </mxCell>
        <mxCell id="KKplSYqsVXm_G8sszua0-10" value="count = 2" style="rounded=1;whiteSpace=wrap;html=1;" parent="1" vertex="1">
          <mxGeometry x="430" y="510" width="230" height="40" as="geometry" />
        </mxCell>
        <mxCell id="KKplSYqsVXm_G8sszua0-12" style="edgeStyle=orthogonalEdgeStyle;rounded=0;orthogonalLoop=1;jettySize=auto;html=1;entryX=0.5;entryY=0;entryDx=0;entryDy=0;" parent="1" source="KKplSYqsVXm_G8sszua0-13" target="KKplSYqsVXm_G8sszua0-14" edge="1">
          <mxGeometry relative="1" as="geometry" />
        </mxCell>
        <mxCell id="KKplSYqsVXm_G8sszua0-13" value="DECLARE sample = []" style="rounded=1;whiteSpace=wrap;html=1;" parent="1" vertex="1">
          <mxGeometry x="430" y="590" width="230" height="40" as="geometry" />
        </mxCell>
        <mxCell id="KKplSYqsVXm_G8sszua0-17" value="" style="edgeStyle=orthogonalEdgeStyle;rounded=0;orthogonalLoop=1;jettySize=auto;html=1;" parent="1" source="KKplSYqsVXm_G8sszua0-14" target="KKplSYqsVXm_G8sszua0-15" edge="1">
          <mxGeometry relative="1" as="geometry" />
        </mxCell>
        <mxCell id="KKplSYqsVXm_G8sszua0-14" value="index = 0" style="rounded=1;whiteSpace=wrap;html=1;" parent="1" vertex="1">
          <mxGeometry x="430" y="670" width="230" height="40" as="geometry" />
        </mxCell>
        <mxCell id="KKplSYqsVXm_G8sszua0-27" style="edgeStyle=orthogonalEdgeStyle;rounded=0;orthogonalLoop=1;jettySize=auto;html=1;entryX=0.75;entryY=0;entryDx=0;entryDy=0;" parent="1" source="KKplSYqsVXm_G8sszua0-15" target="KKplSYqsVXm_G8sszua0-23" edge="1">
          <mxGeometry relative="1" as="geometry" />
        </mxCell>
        <mxCell id="KKplSYqsVXm_G8sszua0-15" value="rows = LEN(data)" style="rounded=1;whiteSpace=wrap;html=1;" parent="1" vertex="1">
          <mxGeometry x="430" y="750" width="230" height="40" as="geometry" />
        </mxCell>
        <mxCell id="KKplSYqsVXm_G8sszua0-19" value="False" style="text;html=1;align=center;verticalAlign=middle;resizable=0;points=[];autosize=1;strokeColor=none;" parent="1" vertex="1">
          <mxGeometry x="600" y="310" width="40" height="20" as="geometry" />
        </mxCell>
        <mxCell id="KKplSYqsVXm_G8sszua0-20" value="True" style="text;html=1;align=center;verticalAlign=middle;resizable=0;points=[];autosize=1;strokeColor=none;" parent="1" vertex="1">
          <mxGeometry x="550" y="380" width="40" height="20" as="geometry" />
        </mxCell>
        <mxCell id="KKplSYqsVXm_G8sszua0-21" value="" style="group" parent="1" vertex="1" connectable="0">
          <mxGeometry x="416" y="830" width="245" height="90" as="geometry" />
        </mxCell>
        <mxCell id="KKplSYqsVXm_G8sszua0-22" value="" style="shape=hexagon;perimeter=hexagonPerimeter2;whiteSpace=wrap;html=1;fixedSize=1;" parent="KKplSYqsVXm_G8sszua0-21" vertex="1">
          <mxGeometry x="-5.326086956521739" width="245.00000000000006" height="90" as="geometry" />
        </mxCell>
        <mxCell id="KKplSYqsVXm_G8sszua0-23" value="i" style="text;html=1;strokeColor=none;fillColor=none;align=center;verticalAlign=middle;whiteSpace=wrap;rounded=0;" parent="KKplSYqsVXm_G8sszua0-21" vertex="1">
          <mxGeometry x="93.33333333333334" width="46.66666666666667" height="20" as="geometry" />
        </mxCell>
        <mxCell id="KKplSYqsVXm_G8sszua0-24" value="0" style="text;html=1;strokeColor=none;fillColor=none;align=center;verticalAlign=middle;whiteSpace=wrap;rounded=0;" parent="KKplSYqsVXm_G8sszua0-21" vertex="1">
          <mxGeometry x="11.666666666666668" y="35" width="46.66666666666667" height="20" as="geometry" />
        </mxCell>
        <mxCell id="KKplSYqsVXm_G8sszua0-25" value="1" style="text;html=1;strokeColor=none;fillColor=none;align=center;verticalAlign=middle;whiteSpace=wrap;rounded=0;" parent="KKplSYqsVXm_G8sszua0-21" vertex="1">
          <mxGeometry x="93.33333333333334" y="70" width="46.66666666666667" height="20" as="geometry" />
        </mxCell>
        <mxCell id="KKplSYqsVXm_G8sszua0-26" value="data[0]" style="text;html=1;strokeColor=none;fillColor=none;align=center;verticalAlign=middle;whiteSpace=wrap;rounded=0;" parent="KKplSYqsVXm_G8sszua0-21" vertex="1">
          <mxGeometry x="175.00000000000003" y="35" width="46.66666666666667" height="20" as="geometry" />
        </mxCell>
        <mxCell id="KKplSYqsVXm_G8sszua0-31" value="" style="edgeStyle=orthogonalEdgeStyle;rounded=0;orthogonalLoop=1;jettySize=auto;html=1;" parent="1" source="KKplSYqsVXm_G8sszua0-28" target="KKplSYqsVXm_G8sszua0-30" edge="1">
          <mxGeometry relative="1" as="geometry" />
        </mxCell>
        <mxCell id="KKplSYqsVXm_G8sszua0-33" style="edgeStyle=orthogonalEdgeStyle;rounded=0;orthogonalLoop=1;jettySize=auto;html=1;entryX=0.5;entryY=0;entryDx=0;entryDy=0;" parent="1" source="KKplSYqsVXm_G8sszua0-28" target="KKplSYqsVXm_G8sszua0-32" edge="1">
          <mxGeometry relative="1" as="geometry">
            <Array as="points">
              <mxPoint x="640" y="1010" />
              <mxPoint x="640" y="1170" />
              <mxPoint x="533" y="1170" />
            </Array>
          </mxGeometry>
        </mxCell>
        <mxCell id="KKplSYqsVXm_G8sszua0-28" value="i == target" style="rhombus;whiteSpace=wrap;html=1;" parent="1" vertex="1">
          <mxGeometry x="477.67" y="960" width="110" height="100" as="geometry" />
        </mxCell>
        <mxCell id="KKplSYqsVXm_G8sszua0-29" style="edgeStyle=orthogonalEdgeStyle;rounded=0;orthogonalLoop=1;jettySize=auto;html=1;entryX=0.5;entryY=0;entryDx=0;entryDy=0;" parent="1" source="KKplSYqsVXm_G8sszua0-25" target="KKplSYqsVXm_G8sszua0-28" edge="1">
          <mxGeometry relative="1" as="geometry" />
        </mxCell>
        <mxCell id="KKplSYqsVXm_G8sszua0-30" value="BREAK" style="rounded=1;whiteSpace=wrap;html=1;" parent="1" vertex="1">
          <mxGeometry x="460.17" y="1100" width="145" height="40" as="geometry" />
        </mxCell>
        <mxCell id="KKplSYqsVXm_G8sszua0-35" value="" style="edgeStyle=orthogonalEdgeStyle;rounded=0;orthogonalLoop=1;jettySize=auto;html=1;" parent="1" source="KKplSYqsVXm_G8sszua0-32" target="KKplSYqsVXm_G8sszua0-34" edge="1">
          <mxGeometry relative="1" as="geometry" />
        </mxCell>
        <mxCell id="KKplSYqsVXm_G8sszua0-32" value="index = index + 1" style="rounded=1;whiteSpace=wrap;html=1;" parent="1" vertex="1">
          <mxGeometry x="460.17" y="1200" width="145" height="40" as="geometry" />
        </mxCell>
        <mxCell id="KKplSYqsVXm_G8sszua0-36" style="edgeStyle=orthogonalEdgeStyle;rounded=0;orthogonalLoop=1;jettySize=auto;html=1;entryX=0;entryY=0.5;entryDx=0;entryDy=0;" parent="1" source="KKplSYqsVXm_G8sszua0-34" target="KKplSYqsVXm_G8sszua0-22" edge="1">
          <mxGeometry relative="1" as="geometry">
            <Array as="points">
              <mxPoint x="320" y="1220" />
              <mxPoint x="320" y="875" />
            </Array>
          </mxGeometry>
        </mxCell>
        <mxCell id="KKplSYqsVXm_G8sszua0-34" value="i" style="ellipse;whiteSpace=wrap;html=1;aspect=fixed;" parent="1" vertex="1">
          <mxGeometry x="340" y="1200" width="40" height="40" as="geometry" />
        </mxCell>
        <mxCell id="KKplSYqsVXm_G8sszua0-37" value="" style="group" parent="1" vertex="1" connectable="0">
          <mxGeometry x="420" y="1290" width="230" height="90" as="geometry" />
        </mxCell>
        <mxCell id="KKplSYqsVXm_G8sszua0-38" value="" style="shape=hexagon;perimeter=hexagonPerimeter2;whiteSpace=wrap;html=1;fixedSize=1;" parent="KKplSYqsVXm_G8sszua0-37" vertex="1">
          <mxGeometry width="230.00000000000003" height="90" as="geometry" />
        </mxCell>
        <mxCell id="KKplSYqsVXm_G8sszua0-39" value="i" style="text;html=1;strokeColor=none;fillColor=none;align=center;verticalAlign=middle;whiteSpace=wrap;rounded=0;" parent="KKplSYqsVXm_G8sszua0-37" vertex="1">
          <mxGeometry x="87.61904761904762" width="43.80952380952381" height="20" as="geometry" />
        </mxCell>
        <mxCell id="KKplSYqsVXm_G8sszua0-40" value="start" style="text;html=1;strokeColor=none;fillColor=none;align=center;verticalAlign=middle;whiteSpace=wrap;rounded=0;" parent="KKplSYqsVXm_G8sszua0-37" vertex="1">
          <mxGeometry x="10.952380952380953" y="35" width="43.80952380952381" height="20" as="geometry" />
        </mxCell>
        <mxCell id="KKplSYqsVXm_G8sszua0-41" value="1" style="text;html=1;strokeColor=none;fillColor=none;align=center;verticalAlign=middle;whiteSpace=wrap;rounded=0;" parent="KKplSYqsVXm_G8sszua0-37" vertex="1">
          <mxGeometry x="87.61904761904762" y="70" width="43.80952380952381" height="20" as="geometry" />
        </mxCell>
        <mxCell id="KKplSYqsVXm_G8sszua0-42" value="&amp;lt;rows" style="text;html=1;strokeColor=none;fillColor=none;align=center;verticalAlign=middle;whiteSpace=wrap;rounded=0;" parent="KKplSYqsVXm_G8sszua0-37" vertex="1">
          <mxGeometry x="164.2857142857143" y="35" width="43.80952380952381" height="20" as="geometry" />
        </mxCell>
        <mxCell id="KKplSYqsVXm_G8sszua0-43" style="edgeStyle=orthogonalEdgeStyle;rounded=0;orthogonalLoop=1;jettySize=auto;html=1;entryX=0.5;entryY=0;entryDx=0;entryDy=0;" parent="1" source="KKplSYqsVXm_G8sszua0-22" target="KKplSYqsVXm_G8sszua0-38" edge="1">
          <mxGeometry relative="1" as="geometry">
            <Array as="points">
              <mxPoint x="720" y="875" />
              <mxPoint x="720" y="1260" />
              <mxPoint x="535" y="1260" />
            </Array>
          </mxGeometry>
        </mxCell>
        <mxCell id="KKplSYqsVXm_G8sszua0-48" value="" style="edgeStyle=orthogonalEdgeStyle;rounded=0;orthogonalLoop=1;jettySize=auto;html=1;" parent="1" source="KKplSYqsVXm_G8sszua0-44" target="KKplSYqsVXm_G8sszua0-46" edge="1">
          <mxGeometry relative="1" as="geometry" />
        </mxCell>
        <mxCell id="KKplSYqsVXm_G8sszua0-44" value="APPEND data[i][index] TO sample" style="rounded=1;whiteSpace=wrap;html=1;" parent="1" vertex="1">
          <mxGeometry x="420" y="1420" width="230" height="40" as="geometry" />
        </mxCell>
        <mxCell id="KKplSYqsVXm_G8sszua0-45" value="" style="edgeStyle=orthogonalEdgeStyle;rounded=0;orthogonalLoop=1;jettySize=auto;html=1;" parent="1" source="KKplSYqsVXm_G8sszua0-38" target="KKplSYqsVXm_G8sszua0-44" edge="1">
          <mxGeometry relative="1" as="geometry" />
        </mxCell>
        <mxCell id="KKplSYqsVXm_G8sszua0-47" style="edgeStyle=orthogonalEdgeStyle;rounded=0;orthogonalLoop=1;jettySize=auto;html=1;entryX=0;entryY=0.5;entryDx=0;entryDy=0;" parent="1" source="KKplSYqsVXm_G8sszua0-46" target="KKplSYqsVXm_G8sszua0-38" edge="1">
          <mxGeometry relative="1" as="geometry">
            <Array as="points">
              <mxPoint x="360" y="1335" />
            </Array>
          </mxGeometry>
        </mxCell>
        <mxCell id="KKplSYqsVXm_G8sszua0-46" value="i" style="ellipse;whiteSpace=wrap;html=1;aspect=fixed;" parent="1" vertex="1">
          <mxGeometry x="340" y="1420" width="40" height="40" as="geometry" />
        </mxCell>
        <mxCell id="KKplSYqsVXm_G8sszua0-53" value="" style="edgeStyle=orthogonalEdgeStyle;rounded=0;orthogonalLoop=1;jettySize=auto;html=1;" parent="1" source="KKplSYqsVXm_G8sszua0-49" target="KKplSYqsVXm_G8sszua0-52" edge="1">
          <mxGeometry relative="1" as="geometry" />
        </mxCell>
        <mxCell id="KKplSYqsVXm_G8sszua0-49" value="len_sample = LEN(sample)" style="rounded=1;whiteSpace=wrap;html=1;" parent="1" vertex="1">
          <mxGeometry x="920" y="120" width="230" height="40" as="geometry" />
        </mxCell>
        <mxCell id="KKplSYqsVXm_G8sszua0-51" style="edgeStyle=orthogonalEdgeStyle;rounded=0;orthogonalLoop=1;jettySize=auto;html=1;entryX=0.5;entryY=0;entryDx=0;entryDy=0;" parent="1" source="KKplSYqsVXm_G8sszua0-38" target="KKplSYqsVXm_G8sszua0-49" edge="1">
          <mxGeometry relative="1" as="geometry">
            <Array as="points">
              <mxPoint x="755" y="1335" />
              <mxPoint x="755" y="80" />
              <mxPoint x="1035" y="80" />
            </Array>
          </mxGeometry>
        </mxCell>
        <mxCell id="KKplSYqsVXm_G8sszua0-55" value="" style="edgeStyle=orthogonalEdgeStyle;rounded=0;orthogonalLoop=1;jettySize=auto;html=1;" parent="1" source="KKplSYqsVXm_G8sszua0-52" target="KKplSYqsVXm_G8sszua0-54" edge="1">
          <mxGeometry relative="1" as="geometry" />
        </mxCell>
        <mxCell id="KKplSYqsVXm_G8sszua0-52" value="DECLARE sequence = [*range(start, LEN_sample+count, 1)]" style="rounded=1;whiteSpace=wrap;html=1;" parent="1" vertex="1">
          <mxGeometry x="920" y="200" width="230" height="40" as="geometry" />
        </mxCell>
        <mxCell id="KKplSYqsVXm_G8sszua0-62" style="edgeStyle=orthogonalEdgeStyle;rounded=0;orthogonalLoop=1;jettySize=auto;html=1;entryX=0.5;entryY=0;entryDx=0;entryDy=0;" parent="1" source="KKplSYqsVXm_G8sszua0-54" target="KKplSYqsVXm_G8sszua0-58" edge="1">
          <mxGeometry relative="1" as="geometry" />
        </mxCell>
        <mxCell id="KKplSYqsVXm_G8sszua0-69" style="edgeStyle=orthogonalEdgeStyle;rounded=0;orthogonalLoop=1;jettySize=auto;html=1;" parent="1" source="KKplSYqsVXm_G8sszua0-54" target="KKplSYqsVXm_G8sszua0-68" edge="1">
          <mxGeometry relative="1" as="geometry">
            <Array as="points">
              <mxPoint x="1330" y="340" />
              <mxPoint x="1330" y="680" />
              <mxPoint x="1040" y="680" />
            </Array>
          </mxGeometry>
        </mxCell>
        <mxCell id="KKplSYqsVXm_G8sszua0-54" value="mode == 2 AND ((index &gt;=5 AND index &lt;=9) OR index == 12 OR index == 13)" style="rhombus;whiteSpace=wrap;html=1;" parent="1" vertex="1">
          <mxGeometry x="785" y="290" width="500" height="100" as="geometry" />
        </mxCell>
        <mxCell id="KKplSYqsVXm_G8sszua0-56" value="" style="group" parent="1" vertex="1" connectable="0">
          <mxGeometry x="925" y="460" width="230" height="90" as="geometry" />
        </mxCell>
        <mxCell id="KKplSYqsVXm_G8sszua0-57" value="" style="shape=hexagon;perimeter=hexagonPerimeter2;whiteSpace=wrap;html=1;fixedSize=1;" parent="KKplSYqsVXm_G8sszua0-56" vertex="1">
          <mxGeometry width="230.00000000000003" height="90" as="geometry" />
        </mxCell>
        <mxCell id="KKplSYqsVXm_G8sszua0-58" value="i" style="text;html=1;strokeColor=none;fillColor=none;align=center;verticalAlign=middle;whiteSpace=wrap;rounded=0;" parent="KKplSYqsVXm_G8sszua0-56" vertex="1">
          <mxGeometry x="87.61904761904762" width="43.80952380952381" height="20" as="geometry" />
        </mxCell>
        <mxCell id="KKplSYqsVXm_G8sszua0-59" value="start" style="text;html=1;strokeColor=none;fillColor=none;align=center;verticalAlign=middle;whiteSpace=wrap;rounded=0;" parent="KKplSYqsVXm_G8sszua0-56" vertex="1">
          <mxGeometry x="10.952380952380953" y="35" width="43.80952380952381" height="20" as="geometry" />
        </mxCell>
        <mxCell id="KKplSYqsVXm_G8sszua0-60" value="1" style="text;html=1;strokeColor=none;fillColor=none;align=center;verticalAlign=middle;whiteSpace=wrap;rounded=0;" parent="KKplSYqsVXm_G8sszua0-56" vertex="1">
          <mxGeometry x="87.61904761904762" y="70" width="43.80952380952381" height="20" as="geometry" />
        </mxCell>
        <mxCell id="KKplSYqsVXm_G8sszua0-61" value="&amp;lt;len_sample" style="text;html=1;strokeColor=none;fillColor=none;align=center;verticalAlign=middle;whiteSpace=wrap;rounded=0;" parent="KKplSYqsVXm_G8sszua0-56" vertex="1">
          <mxGeometry x="164.2857142857143" y="35" width="43.80952380952381" height="20" as="geometry" />
        </mxCell>
        <mxCell id="KKplSYqsVXm_G8sszua0-66" style="edgeStyle=orthogonalEdgeStyle;rounded=0;orthogonalLoop=1;jettySize=auto;html=1;entryX=0.5;entryY=1;entryDx=0;entryDy=0;" parent="1" source="KKplSYqsVXm_G8sszua0-63" target="KKplSYqsVXm_G8sszua0-65" edge="1">
          <mxGeometry relative="1" as="geometry" />
        </mxCell>
        <mxCell id="KKplSYqsVXm_G8sszua0-63" value="sample[i] = int(sample[i])" style="rounded=1;whiteSpace=wrap;html=1;" parent="1" vertex="1">
          <mxGeometry x="925" y="600" width="230" height="40" as="geometry" />
        </mxCell>
        <mxCell id="KKplSYqsVXm_G8sszua0-64" style="edgeStyle=orthogonalEdgeStyle;rounded=0;orthogonalLoop=1;jettySize=auto;html=1;entryX=0.5;entryY=0;entryDx=0;entryDy=0;" parent="1" source="KKplSYqsVXm_G8sszua0-57" target="KKplSYqsVXm_G8sszua0-63" edge="1">
          <mxGeometry relative="1" as="geometry" />
        </mxCell>
        <mxCell id="KKplSYqsVXm_G8sszua0-67" style="edgeStyle=orthogonalEdgeStyle;rounded=0;orthogonalLoop=1;jettySize=auto;html=1;entryX=0;entryY=0.5;entryDx=0;entryDy=0;" parent="1" source="KKplSYqsVXm_G8sszua0-65" target="KKplSYqsVXm_G8sszua0-57" edge="1">
          <mxGeometry relative="1" as="geometry" />
        </mxCell>
        <mxCell id="KKplSYqsVXm_G8sszua0-65" value="i" style="ellipse;whiteSpace=wrap;html=1;aspect=fixed;" parent="1" vertex="1">
          <mxGeometry x="810" y="485" width="40" height="40" as="geometry" />
        </mxCell>
        <mxCell id="KKplSYqsVXm_G8sszua0-81" style="edgeStyle=orthogonalEdgeStyle;rounded=0;orthogonalLoop=1;jettySize=auto;html=1;entryX=0.5;entryY=0;entryDx=0;entryDy=0;" parent="1" source="KKplSYqsVXm_G8sszua0-68" target="KKplSYqsVXm_G8sszua0-77" edge="1">
          <mxGeometry relative="1" as="geometry" />
        </mxCell>
        <mxCell id="KKplSYqsVXm_G8sszua0-136" style="edgeStyle=orthogonalEdgeStyle;rounded=0;orthogonalLoop=1;jettySize=auto;html=1;" parent="1" source="KKplSYqsVXm_G8sszua0-68" edge="1">
          <mxGeometry relative="1" as="geometry">
            <mxPoint x="1360" y="770" as="targetPoint" />
          </mxGeometry>
        </mxCell>
        <mxCell id="KKplSYqsVXm_G8sszua0-68" value="order == 0" style="rhombus;whiteSpace=wrap;html=1;" parent="1" vertex="1">
          <mxGeometry x="985" y="720" width="110" height="100" as="geometry" />
        </mxCell>
        <mxCell id="KKplSYqsVXm_G8sszua0-70" style="edgeStyle=orthogonalEdgeStyle;rounded=0;orthogonalLoop=1;jettySize=auto;html=1;" parent="1" source="KKplSYqsVXm_G8sszua0-57" edge="1">
          <mxGeometry relative="1" as="geometry">
            <mxPoint x="1330" y="505" as="targetPoint" />
          </mxGeometry>
        </mxCell>
        <mxCell id="KKplSYqsVXm_G8sszua0-71" value="True" style="text;html=1;align=center;verticalAlign=middle;resizable=0;points=[];autosize=1;strokeColor=none;" parent="1" vertex="1">
          <mxGeometry x="530" y="1060" width="40" height="20" as="geometry" />
        </mxCell>
        <mxCell id="KKplSYqsVXm_G8sszua0-72" value="False" style="text;html=1;align=center;verticalAlign=middle;resizable=0;points=[];autosize=1;strokeColor=none;" parent="1" vertex="1">
          <mxGeometry x="588" y="990" width="40" height="20" as="geometry" />
        </mxCell>
        <mxCell id="KKplSYqsVXm_G8sszua0-73" value="True" style="text;html=1;align=center;verticalAlign=middle;resizable=0;points=[];autosize=1;strokeColor=none;" parent="1" vertex="1">
          <mxGeometry x="1040" y="390" width="40" height="20" as="geometry" />
        </mxCell>
        <mxCell id="KKplSYqsVXm_G8sszua0-74" value="False" style="text;html=1;align=center;verticalAlign=middle;resizable=0;points=[];autosize=1;strokeColor=none;" parent="1" vertex="1">
          <mxGeometry x="1280" y="320" width="40" height="20" as="geometry" />
        </mxCell>
        <mxCell id="KKplSYqsVXm_G8sszua0-75" value="&lt; len_sample-1" style="group" parent="1" vertex="1" connectable="0">
          <mxGeometry x="930" y="850" width="230" height="90" as="geometry" />
        </mxCell>
        <mxCell id="KKplSYqsVXm_G8sszua0-76" value="" style="shape=hexagon;perimeter=hexagonPerimeter2;whiteSpace=wrap;html=1;fixedSize=1;" parent="KKplSYqsVXm_G8sszua0-75" vertex="1">
          <mxGeometry width="230.00000000000003" height="90" as="geometry" />
        </mxCell>
        <mxCell id="KKplSYqsVXm_G8sszua0-77" value="i" style="text;html=1;strokeColor=none;fillColor=none;align=center;verticalAlign=middle;whiteSpace=wrap;rounded=0;" parent="KKplSYqsVXm_G8sszua0-75" vertex="1">
          <mxGeometry x="87.61904761904762" width="43.80952380952381" height="20" as="geometry" />
        </mxCell>
        <mxCell id="KKplSYqsVXm_G8sszua0-78" value="start" style="text;html=1;strokeColor=none;fillColor=none;align=center;verticalAlign=middle;whiteSpace=wrap;rounded=0;" parent="KKplSYqsVXm_G8sszua0-75" vertex="1">
          <mxGeometry x="10.952380952380953" y="35" width="43.80952380952381" height="20" as="geometry" />
        </mxCell>
        <mxCell id="KKplSYqsVXm_G8sszua0-79" value="1" style="text;html=1;strokeColor=none;fillColor=none;align=center;verticalAlign=middle;whiteSpace=wrap;rounded=0;" parent="KKplSYqsVXm_G8sszua0-75" vertex="1">
          <mxGeometry x="87.61904761904762" y="70" width="43.80952380952381" height="20" as="geometry" />
        </mxCell>
        <mxCell id="KKplSYqsVXm_G8sszua0-80" value="&lt; len_sample-1" style="text;html=1;strokeColor=none;fillColor=none;align=center;verticalAlign=middle;whiteSpace=wrap;rounded=0;" parent="KKplSYqsVXm_G8sszua0-75" vertex="1">
          <mxGeometry x="120" y="35" width="98.1" height="20" as="geometry" />
        </mxCell>
        <mxCell id="KKplSYqsVXm_G8sszua0-82" value="&lt; len_sample-1" style="group" parent="1" vertex="1" connectable="0">
          <mxGeometry x="935" y="980" width="230" height="90" as="geometry" />
        </mxCell>
        <mxCell id="KKplSYqsVXm_G8sszua0-83" value="" style="shape=hexagon;perimeter=hexagonPerimeter2;whiteSpace=wrap;html=1;fixedSize=1;" parent="KKplSYqsVXm_G8sszua0-82" vertex="1">
          <mxGeometry width="230.00000000000003" height="90" as="geometry" />
        </mxCell>
        <mxCell id="KKplSYqsVXm_G8sszua0-84" value="k" style="text;html=1;strokeColor=none;fillColor=none;align=center;verticalAlign=middle;whiteSpace=wrap;rounded=0;" parent="KKplSYqsVXm_G8sszua0-82" vertex="1">
          <mxGeometry x="87.61904761904762" width="43.80952380952381" height="20" as="geometry" />
        </mxCell>
        <mxCell id="KKplSYqsVXm_G8sszua0-85" value="start" style="text;html=1;strokeColor=none;fillColor=none;align=center;verticalAlign=middle;whiteSpace=wrap;rounded=0;" parent="KKplSYqsVXm_G8sszua0-82" vertex="1">
          <mxGeometry x="10.952380952380953" y="35" width="43.80952380952381" height="20" as="geometry" />
        </mxCell>
        <mxCell id="KKplSYqsVXm_G8sszua0-86" value="1" style="text;html=1;strokeColor=none;fillColor=none;align=center;verticalAlign=middle;whiteSpace=wrap;rounded=0;" parent="KKplSYqsVXm_G8sszua0-82" vertex="1">
          <mxGeometry x="87.61904761904762" y="70" width="43.80952380952381" height="20" as="geometry" />
        </mxCell>
        <mxCell id="KKplSYqsVXm_G8sszua0-87" value="len_sample-i-1" style="text;html=1;strokeColor=none;fillColor=none;align=center;verticalAlign=middle;whiteSpace=wrap;rounded=0;" parent="KKplSYqsVXm_G8sszua0-82" vertex="1">
          <mxGeometry x="120" y="35" width="98.1" height="20" as="geometry" />
        </mxCell>
        <mxCell id="KKplSYqsVXm_G8sszua0-88" style="edgeStyle=orthogonalEdgeStyle;rounded=0;orthogonalLoop=1;jettySize=auto;html=1;entryX=0.5;entryY=0;entryDx=0;entryDy=0;" parent="1" source="KKplSYqsVXm_G8sszua0-76" target="KKplSYqsVXm_G8sszua0-84" edge="1">
          <mxGeometry relative="1" as="geometry" />
        </mxCell>
        <mxCell id="KKplSYqsVXm_G8sszua0-92" value="" style="edgeStyle=orthogonalEdgeStyle;rounded=0;orthogonalLoop=1;jettySize=auto;html=1;" parent="1" source="KKplSYqsVXm_G8sszua0-89" target="KKplSYqsVXm_G8sszua0-91" edge="1">
          <mxGeometry relative="1" as="geometry" />
        </mxCell>
        <mxCell id="KKplSYqsVXm_G8sszua0-97" style="edgeStyle=orthogonalEdgeStyle;rounded=0;orthogonalLoop=1;jettySize=auto;html=1;entryX=1;entryY=0.5;entryDx=0;entryDy=0;" parent="1" source="KKplSYqsVXm_G8sszua0-89" target="KKplSYqsVXm_G8sszua0-95" edge="1">
          <mxGeometry relative="1" as="geometry">
            <Array as="points">
              <mxPoint x="1190" y="1170" />
              <mxPoint x="1190" y="1440" />
            </Array>
          </mxGeometry>
        </mxCell>
        <mxCell id="KKplSYqsVXm_G8sszua0-89" value="sample[k] &lt; sample[k+1]" style="rhombus;whiteSpace=wrap;html=1;" parent="1" vertex="1">
          <mxGeometry x="972.5" y="1120" width="155" height="100" as="geometry" />
        </mxCell>
        <mxCell id="KKplSYqsVXm_G8sszua0-90" style="edgeStyle=orthogonalEdgeStyle;rounded=0;orthogonalLoop=1;jettySize=auto;html=1;" parent="1" source="KKplSYqsVXm_G8sszua0-83" target="KKplSYqsVXm_G8sszua0-89" edge="1">
          <mxGeometry relative="1" as="geometry" />
        </mxCell>
        <mxCell id="KKplSYqsVXm_G8sszua0-94" value="" style="edgeStyle=orthogonalEdgeStyle;rounded=0;orthogonalLoop=1;jettySize=auto;html=1;" parent="1" source="KKplSYqsVXm_G8sszua0-91" target="KKplSYqsVXm_G8sszua0-93" edge="1">
          <mxGeometry relative="1" as="geometry" />
        </mxCell>
        <mxCell id="KKplSYqsVXm_G8sszua0-91" value="sample[k], sample[k+1] = sample[k+1], sample[k]" style="rounded=1;whiteSpace=wrap;html=1;" parent="1" vertex="1">
          <mxGeometry x="935" y="1260" width="230" height="40" as="geometry" />
        </mxCell>
        <mxCell id="KKplSYqsVXm_G8sszua0-96" value="" style="edgeStyle=orthogonalEdgeStyle;rounded=0;orthogonalLoop=1;jettySize=auto;html=1;" parent="1" source="KKplSYqsVXm_G8sszua0-93" target="KKplSYqsVXm_G8sszua0-95" edge="1">
          <mxGeometry relative="1" as="geometry" />
        </mxCell>
        <mxCell id="KKplSYqsVXm_G8sszua0-93" value="sequence[k], sequence[k+1] = sequence[k+1], sequence[k]" style="rounded=1;whiteSpace=wrap;html=1;" parent="1" vertex="1">
          <mxGeometry x="935" y="1340" width="230" height="40" as="geometry" />
        </mxCell>
        <mxCell id="KKplSYqsVXm_G8sszua0-98" style="edgeStyle=orthogonalEdgeStyle;rounded=0;orthogonalLoop=1;jettySize=auto;html=1;entryX=0;entryY=0.5;entryDx=0;entryDy=0;" parent="1" source="KKplSYqsVXm_G8sszua0-95" target="KKplSYqsVXm_G8sszua0-83" edge="1">
          <mxGeometry relative="1" as="geometry">
            <Array as="points">
              <mxPoint x="915" y="1440" />
              <mxPoint x="915" y="1025" />
            </Array>
          </mxGeometry>
        </mxCell>
        <mxCell id="KKplSYqsVXm_G8sszua0-95" value="k" style="ellipse;whiteSpace=wrap;html=1;aspect=fixed;" parent="1" vertex="1">
          <mxGeometry x="1030" y="1420" width="40" height="40" as="geometry" />
        </mxCell>
        <mxCell id="KKplSYqsVXm_G8sszua0-99" value="True" style="text;html=1;align=center;verticalAlign=middle;resizable=0;points=[];autosize=1;strokeColor=none;" parent="1" vertex="1">
          <mxGeometry x="1050" y="1220" width="40" height="20" as="geometry" />
        </mxCell>
        <mxCell id="KKplSYqsVXm_G8sszua0-100" value="False" style="text;html=1;align=center;verticalAlign=middle;resizable=0;points=[];autosize=1;strokeColor=none;" parent="1" vertex="1">
          <mxGeometry x="1128" y="1150" width="40" height="20" as="geometry" />
        </mxCell>
        <mxCell id="KKplSYqsVXm_G8sszua0-103" style="edgeStyle=orthogonalEdgeStyle;rounded=0;orthogonalLoop=1;jettySize=auto;html=1;entryX=0;entryY=0.556;entryDx=0;entryDy=0;entryPerimeter=0;" parent="1" source="KKplSYqsVXm_G8sszua0-101" target="KKplSYqsVXm_G8sszua0-76" edge="1">
          <mxGeometry relative="1" as="geometry">
            <Array as="points">
              <mxPoint x="890" y="1510" />
              <mxPoint x="890" y="900" />
            </Array>
          </mxGeometry>
        </mxCell>
        <mxCell id="KKplSYqsVXm_G8sszua0-101" value="i" style="ellipse;whiteSpace=wrap;html=1;aspect=fixed;" parent="1" vertex="1">
          <mxGeometry x="1030" y="1490" width="40" height="40" as="geometry" />
        </mxCell>
        <mxCell id="KKplSYqsVXm_G8sszua0-102" style="edgeStyle=orthogonalEdgeStyle;rounded=0;orthogonalLoop=1;jettySize=auto;html=1;entryX=1;entryY=0.5;entryDx=0;entryDy=0;" parent="1" source="KKplSYqsVXm_G8sszua0-83" target="KKplSYqsVXm_G8sszua0-101" edge="1">
          <mxGeometry relative="1" as="geometry">
            <Array as="points">
              <mxPoint x="1210" y="1025" />
              <mxPoint x="1210" y="1510" />
            </Array>
          </mxGeometry>
        </mxCell>
        <mxCell id="KKplSYqsVXm_G8sszua0-104" style="edgeStyle=orthogonalEdgeStyle;rounded=0;orthogonalLoop=1;jettySize=auto;html=1;entryX=0.5;entryY=0;entryDx=0;entryDy=0;" parent="1" source="KKplSYqsVXm_G8sszua0-105" target="KKplSYqsVXm_G8sszua0-108" edge="1">
          <mxGeometry relative="1" as="geometry" />
        </mxCell>
        <mxCell id="KKplSYqsVXm_G8sszua0-138" style="edgeStyle=orthogonalEdgeStyle;rounded=0;orthogonalLoop=1;jettySize=auto;html=1;entryX=1;entryY=0.5;entryDx=0;entryDy=0;" parent="1" source="KKplSYqsVXm_G8sszua0-105" target="KKplSYqsVXm_G8sszua0-137" edge="1">
          <mxGeometry relative="1" as="geometry">
            <Array as="points">
              <mxPoint x="1760" y="170" />
              <mxPoint x="1760" y="1030" />
            </Array>
          </mxGeometry>
        </mxCell>
        <mxCell id="KKplSYqsVXm_G8sszua0-105" value="order == 1" style="rhombus;whiteSpace=wrap;html=1;" parent="1" vertex="1">
          <mxGeometry x="1505" y="120" width="110" height="100" as="geometry" />
        </mxCell>
        <mxCell id="KKplSYqsVXm_G8sszua0-106" value="&lt; len_sample-1" style="group" parent="1" vertex="1" connectable="0">
          <mxGeometry x="1450" y="250" width="230" height="90" as="geometry" />
        </mxCell>
        <mxCell id="KKplSYqsVXm_G8sszua0-107" value="" style="shape=hexagon;perimeter=hexagonPerimeter2;whiteSpace=wrap;html=1;fixedSize=1;" parent="KKplSYqsVXm_G8sszua0-106" vertex="1">
          <mxGeometry width="230.00000000000003" height="90" as="geometry" />
        </mxCell>
        <mxCell id="KKplSYqsVXm_G8sszua0-108" value="i" style="text;html=1;strokeColor=none;fillColor=none;align=center;verticalAlign=middle;whiteSpace=wrap;rounded=0;" parent="KKplSYqsVXm_G8sszua0-106" vertex="1">
          <mxGeometry x="87.61904761904762" width="43.80952380952381" height="20" as="geometry" />
        </mxCell>
        <mxCell id="KKplSYqsVXm_G8sszua0-109" value="start" style="text;html=1;strokeColor=none;fillColor=none;align=center;verticalAlign=middle;whiteSpace=wrap;rounded=0;" parent="KKplSYqsVXm_G8sszua0-106" vertex="1">
          <mxGeometry x="10.952380952380953" y="35" width="43.80952380952381" height="20" as="geometry" />
        </mxCell>
        <mxCell id="KKplSYqsVXm_G8sszua0-110" value="1" style="text;html=1;strokeColor=none;fillColor=none;align=center;verticalAlign=middle;whiteSpace=wrap;rounded=0;" parent="KKplSYqsVXm_G8sszua0-106" vertex="1">
          <mxGeometry x="87.61904761904762" y="70" width="43.80952380952381" height="20" as="geometry" />
        </mxCell>
        <mxCell id="KKplSYqsVXm_G8sszua0-111" value="&lt; len_sample-1" style="text;html=1;strokeColor=none;fillColor=none;align=center;verticalAlign=middle;whiteSpace=wrap;rounded=0;" parent="KKplSYqsVXm_G8sszua0-106" vertex="1">
          <mxGeometry x="120" y="35" width="98.1" height="20" as="geometry" />
        </mxCell>
        <mxCell id="KKplSYqsVXm_G8sszua0-112" value="&lt; len_sample-1" style="group" parent="1" vertex="1" connectable="0">
          <mxGeometry x="1455" y="380" width="230" height="90" as="geometry" />
        </mxCell>
        <mxCell id="KKplSYqsVXm_G8sszua0-113" value="" style="shape=hexagon;perimeter=hexagonPerimeter2;whiteSpace=wrap;html=1;fixedSize=1;" parent="KKplSYqsVXm_G8sszua0-112" vertex="1">
          <mxGeometry width="230.00000000000003" height="90" as="geometry" />
        </mxCell>
        <mxCell id="KKplSYqsVXm_G8sszua0-114" value="k" style="text;html=1;strokeColor=none;fillColor=none;align=center;verticalAlign=middle;whiteSpace=wrap;rounded=0;" parent="KKplSYqsVXm_G8sszua0-112" vertex="1">
          <mxGeometry x="87.61904761904762" width="43.80952380952381" height="20" as="geometry" />
        </mxCell>
        <mxCell id="KKplSYqsVXm_G8sszua0-115" value="start" style="text;html=1;strokeColor=none;fillColor=none;align=center;verticalAlign=middle;whiteSpace=wrap;rounded=0;" parent="KKplSYqsVXm_G8sszua0-112" vertex="1">
          <mxGeometry x="10.952380952380953" y="35" width="43.80952380952381" height="20" as="geometry" />
        </mxCell>
        <mxCell id="KKplSYqsVXm_G8sszua0-116" value="1" style="text;html=1;strokeColor=none;fillColor=none;align=center;verticalAlign=middle;whiteSpace=wrap;rounded=0;" parent="KKplSYqsVXm_G8sszua0-112" vertex="1">
          <mxGeometry x="87.61904761904762" y="70" width="43.80952380952381" height="20" as="geometry" />
        </mxCell>
        <mxCell id="KKplSYqsVXm_G8sszua0-117" value="len_sample-i-1" style="text;html=1;strokeColor=none;fillColor=none;align=center;verticalAlign=middle;whiteSpace=wrap;rounded=0;" parent="KKplSYqsVXm_G8sszua0-112" vertex="1">
          <mxGeometry x="120" y="35" width="98.1" height="20" as="geometry" />
        </mxCell>
        <mxCell id="KKplSYqsVXm_G8sszua0-118" style="edgeStyle=orthogonalEdgeStyle;rounded=0;orthogonalLoop=1;jettySize=auto;html=1;entryX=0.5;entryY=0;entryDx=0;entryDy=0;" parent="1" source="KKplSYqsVXm_G8sszua0-107" target="KKplSYqsVXm_G8sszua0-114" edge="1">
          <mxGeometry relative="1" as="geometry" />
        </mxCell>
        <mxCell id="KKplSYqsVXm_G8sszua0-119" value="" style="edgeStyle=orthogonalEdgeStyle;rounded=0;orthogonalLoop=1;jettySize=auto;html=1;" parent="1" source="KKplSYqsVXm_G8sszua0-121" target="KKplSYqsVXm_G8sszua0-124" edge="1">
          <mxGeometry relative="1" as="geometry" />
        </mxCell>
        <mxCell id="KKplSYqsVXm_G8sszua0-120" style="edgeStyle=orthogonalEdgeStyle;rounded=0;orthogonalLoop=1;jettySize=auto;html=1;entryX=1;entryY=0.5;entryDx=0;entryDy=0;" parent="1" source="KKplSYqsVXm_G8sszua0-121" target="KKplSYqsVXm_G8sszua0-128" edge="1">
          <mxGeometry relative="1" as="geometry">
            <Array as="points">
              <mxPoint x="1710" y="570" />
              <mxPoint x="1710" y="840" />
            </Array>
          </mxGeometry>
        </mxCell>
        <mxCell id="KKplSYqsVXm_G8sszua0-121" value="sample[k] &lt; sample[k+1]" style="rhombus;whiteSpace=wrap;html=1;" parent="1" vertex="1">
          <mxGeometry x="1492.5" y="520" width="155" height="100" as="geometry" />
        </mxCell>
        <mxCell id="KKplSYqsVXm_G8sszua0-122" style="edgeStyle=orthogonalEdgeStyle;rounded=0;orthogonalLoop=1;jettySize=auto;html=1;" parent="1" source="KKplSYqsVXm_G8sszua0-113" target="KKplSYqsVXm_G8sszua0-121" edge="1">
          <mxGeometry relative="1" as="geometry" />
        </mxCell>
        <mxCell id="KKplSYqsVXm_G8sszua0-123" value="" style="edgeStyle=orthogonalEdgeStyle;rounded=0;orthogonalLoop=1;jettySize=auto;html=1;" parent="1" source="KKplSYqsVXm_G8sszua0-124" target="KKplSYqsVXm_G8sszua0-126" edge="1">
          <mxGeometry relative="1" as="geometry" />
        </mxCell>
        <mxCell id="KKplSYqsVXm_G8sszua0-124" value="sample[k], sample[k+1] = sample[k+1], sample[k]" style="rounded=1;whiteSpace=wrap;html=1;" parent="1" vertex="1">
          <mxGeometry x="1455" y="660" width="230" height="40" as="geometry" />
        </mxCell>
        <mxCell id="KKplSYqsVXm_G8sszua0-125" value="" style="edgeStyle=orthogonalEdgeStyle;rounded=0;orthogonalLoop=1;jettySize=auto;html=1;" parent="1" source="KKplSYqsVXm_G8sszua0-126" target="KKplSYqsVXm_G8sszua0-128" edge="1">
          <mxGeometry relative="1" as="geometry" />
        </mxCell>
        <mxCell id="KKplSYqsVXm_G8sszua0-126" value="sequence[k], sequence[k+1] = sequence[k+1], sequence[k]" style="rounded=1;whiteSpace=wrap;html=1;" parent="1" vertex="1">
          <mxGeometry x="1455" y="740" width="230" height="40" as="geometry" />
        </mxCell>
        <mxCell id="KKplSYqsVXm_G8sszua0-127" style="edgeStyle=orthogonalEdgeStyle;rounded=0;orthogonalLoop=1;jettySize=auto;html=1;entryX=0;entryY=0.5;entryDx=0;entryDy=0;" parent="1" source="KKplSYqsVXm_G8sszua0-128" target="KKplSYqsVXm_G8sszua0-113" edge="1">
          <mxGeometry relative="1" as="geometry">
            <Array as="points">
              <mxPoint x="1435" y="840" />
              <mxPoint x="1435" y="425" />
            </Array>
          </mxGeometry>
        </mxCell>
        <mxCell id="KKplSYqsVXm_G8sszua0-128" value="k" style="ellipse;whiteSpace=wrap;html=1;aspect=fixed;" parent="1" vertex="1">
          <mxGeometry x="1550" y="820" width="40" height="40" as="geometry" />
        </mxCell>
        <mxCell id="KKplSYqsVXm_G8sszua0-129" value="True" style="text;html=1;align=center;verticalAlign=middle;resizable=0;points=[];autosize=1;strokeColor=none;" parent="1" vertex="1">
          <mxGeometry x="1570" y="620" width="40" height="20" as="geometry" />
        </mxCell>
        <mxCell id="KKplSYqsVXm_G8sszua0-130" value="False" style="text;html=1;align=center;verticalAlign=middle;resizable=0;points=[];autosize=1;strokeColor=none;" parent="1" vertex="1">
          <mxGeometry x="1648" y="550" width="40" height="20" as="geometry" />
        </mxCell>
        <mxCell id="KKplSYqsVXm_G8sszua0-131" style="edgeStyle=orthogonalEdgeStyle;rounded=0;orthogonalLoop=1;jettySize=auto;html=1;entryX=0;entryY=0.556;entryDx=0;entryDy=0;entryPerimeter=0;" parent="1" source="KKplSYqsVXm_G8sszua0-132" target="KKplSYqsVXm_G8sszua0-107" edge="1">
          <mxGeometry relative="1" as="geometry">
            <Array as="points">
              <mxPoint x="1410" y="910" />
              <mxPoint x="1410" y="300" />
            </Array>
          </mxGeometry>
        </mxCell>
        <mxCell id="KKplSYqsVXm_G8sszua0-132" value="i" style="ellipse;whiteSpace=wrap;html=1;aspect=fixed;" parent="1" vertex="1">
          <mxGeometry x="1550" y="890" width="40" height="40" as="geometry" />
        </mxCell>
        <mxCell id="KKplSYqsVXm_G8sszua0-133" style="edgeStyle=orthogonalEdgeStyle;rounded=0;orthogonalLoop=1;jettySize=auto;html=1;entryX=1;entryY=0.5;entryDx=0;entryDy=0;" parent="1" source="KKplSYqsVXm_G8sszua0-113" target="KKplSYqsVXm_G8sszua0-132" edge="1">
          <mxGeometry relative="1" as="geometry">
            <Array as="points">
              <mxPoint x="1730" y="425" />
              <mxPoint x="1730" y="910" />
            </Array>
          </mxGeometry>
        </mxCell>
        <mxCell id="KKplSYqsVXm_G8sszua0-134" style="edgeStyle=orthogonalEdgeStyle;rounded=0;orthogonalLoop=1;jettySize=auto;html=1;entryX=0.5;entryY=0;entryDx=0;entryDy=0;" parent="1" source="KKplSYqsVXm_G8sszua0-76" target="KKplSYqsVXm_G8sszua0-105" edge="1">
          <mxGeometry relative="1" as="geometry">
            <Array as="points">
              <mxPoint x="1360" y="895" />
              <mxPoint x="1360" y="100" />
              <mxPoint x="1560" y="100" />
            </Array>
          </mxGeometry>
        </mxCell>
        <mxCell id="KKplSYqsVXm_G8sszua0-135" value="True" style="text;html=1;align=center;verticalAlign=middle;resizable=0;points=[];autosize=1;strokeColor=none;" parent="1" vertex="1">
          <mxGeometry x="1049" y="820" width="40" height="20" as="geometry" />
        </mxCell>
        <mxCell id="KKplSYqsVXm_G8sszua0-137" value="RETURN sequence" style="ellipse;whiteSpace=wrap;html=1;" parent="1" vertex="1">
          <mxGeometry x="1530" y="990" width="90" height="80" as="geometry" />
        </mxCell>
        <mxCell id="KKplSYqsVXm_G8sszua0-139" style="edgeStyle=orthogonalEdgeStyle;rounded=0;orthogonalLoop=1;jettySize=auto;html=1;" parent="1" source="KKplSYqsVXm_G8sszua0-107" edge="1">
          <mxGeometry relative="1" as="geometry">
            <mxPoint x="1760" y="295" as="targetPoint" />
          </mxGeometry>
        </mxCell>
        <mxCell id="1uuBQNsPsWe3OF4lkfvW-1" value="False" style="text;html=1;align=center;verticalAlign=middle;resizable=0;points=[];autosize=1;strokeColor=none;" vertex="1" parent="1">
          <mxGeometry x="1100" y="750" width="40" height="20" as="geometry" />
        </mxCell>
        <mxCell id="1uuBQNsPsWe3OF4lkfvW-2" value="True" style="text;html=1;align=center;verticalAlign=middle;resizable=0;points=[];autosize=1;strokeColor=none;" vertex="1" parent="1">
          <mxGeometry x="1560" y="220" width="40" height="20" as="geometry" />
        </mxCell>
        <mxCell id="1uuBQNsPsWe3OF4lkfvW-3" value="False" style="text;html=1;align=center;verticalAlign=middle;resizable=0;points=[];autosize=1;strokeColor=none;" vertex="1" parent="1">
          <mxGeometry x="1620" y="150" width="40" height="20" as="geometry" />
        </mxCell>
      </root>
    </mxGraphModel>
  </diagram>
</mxfile>
